<?xml version="1.0" ?>
<!DOCTYPE svg  PUBLIC '-//W3C//DTD SVG 1.1//EN'  'http://www.w3.org/Graphics/SVG/1.1/DTD/svg11.dtd'>
<!-- Uploaded to: SVG Repo, www.svgrepo.com, Generator: SVG Repo Mixer Tools -->
<svg width="800px" height="800px" viewBox="0 0 32 32" enable-background="new 0 0 32 32" id="_x3C_Layer_x3E_" version="1.1" xml:space="preserve" xmlns="http://www.w3.org/2000/svg" xmlns:xlink="http://www.w3.org/1999/xlink">
<g id="repair_x2C__overhaul_x2C__service_x2C__tools_x2C__wrench">
<g id="XMLID_2365_">
<line fill="none" id="XMLID_2367_" stroke="#263238" stroke-linecap="round" stroke-linejoin="round" stroke-miterlimit="10" x1="9.5" x2="22.5" y1="26.5" y2="26.5"/>
</g>
<g id="XMLID_2376_">
<path d="    M8.5,17.5v2c0,0.553-0.447,1-1,1h-1c-0.553,0-1-0.447-1-1v-2" fill="none" id="XMLID_6237_" stroke="#263238" stroke-linecap="round" stroke-linejoin="round" stroke-miterlimit="10"/>
<path d="    M26.5,17.5v2c0,0.553-0.447,1-1,1h-1c-0.553,0-1-0.447-1-1v-2" fill="none" id="XMLID_2377_" stroke="#263238" stroke-linecap="round" stroke-linejoin="round" stroke-miterlimit="10"/>
<path d="    M25.274,11.052L23.57,5.258c-0.229-0.776-0.898-1.336-1.702-1.424C20.539,3.689,18.361,3.5,16,3.5s-4.539,0.189-5.868,0.334    C9.328,3.922,8.658,4.482,8.43,5.258l-1.701,5.786" fill="none" id="XMLID_2378_" stroke="#263238" stroke-linecap="round" stroke-linejoin="round" stroke-miterlimit="10"/>
<line fill="none" id="XMLID_2379_" stroke="#263238" stroke-linecap="round" stroke-linejoin="round" stroke-miterlimit="10" x1="27.5" x2="4.5" y1="17.5" y2="17.5"/>
<path d="    M4.5,15v-1.5c0-2.458,3-3,11.5-3s11.5,0.583,11.5,3v1.188" fill="none" id="XMLID_2380_" stroke="#263238" stroke-linecap="round" stroke-linejoin="round" stroke-miterlimit="10"/>
<path d="    M23.5,15.5v-1c0-0.553,0.447-1,1-1h3v2H23.5z" fill="none" id="XMLID_5888_" stroke="#263238" stroke-linecap="round" stroke-linejoin="round" stroke-miterlimit="10"/>
<path d="    M4.5,15.5v-2h3c0.553,0,1,0.447,1,1v1H4.5z" fill="none" id="XMLID_5873_" stroke="#263238" stroke-linecap="round" stroke-linejoin="round" stroke-miterlimit="10"/>
<path d="    M10.5,15.5L10.5,15.5c0-1.104,0.896-2,2-2h7c1.104,0,2,0.896,2,2l0,0" fill="none" id="XMLID_2381_" stroke="#263238" stroke-linecap="round" stroke-linejoin="round" stroke-miterlimit="10"/>
<line fill="none" id="XMLID_2382_" stroke="#263238" stroke-linecap="round" stroke-linejoin="round" stroke-miterlimit="10" x1="13.6" x2="13.5" y1="20.5" y2="20.5"/>
<line fill="none" id="XMLID_2383_" stroke="#263238" stroke-linecap="round" stroke-linejoin="round" stroke-miterlimit="10" x1="18.6" x2="18.5" y1="20.5" y2="20.5"/>
<line fill="none" id="XMLID_2384_" stroke="#263238" stroke-linecap="round" stroke-linejoin="round" stroke-miterlimit="10" x1="16.1" x2="16" y1="20.5" y2="20.5"/>
<polygon fill="none" id="XMLID_2385_" points="    23,28.5 24.5,30.5 28.5,30.5 30.5,28.5 27,28.5 25.5,26.5 27,24.5 30.5,24.5 28.5,22.5 24.5,22.5 23,24.5 9,24.5 7.5,22.5     3.5,22.5 1.5,24.5 5,24.5 6.5,26.5 5,28.5 1.5,28.5 3.5,30.5 7.5,30.5 9,28.5   " stroke="#263238" stroke-linecap="round" stroke-linejoin="round" stroke-miterlimit="10"/>
</g>
</g>
</svg>